<?xml version="1.0" encoding="utf-8"?>
<!-- Generator: Adobe Illustrator 15.1.0, SVG Export Plug-In . SVG Version: 6.00 Build 0)  -->
<!DOCTYPE svg PUBLIC "-//W3C//DTD SVG 1.1//EN" "http://www.w3.org/Graphics/SVG/1.1/DTD/svg11.dtd">
<svg version="1.1" id="Layer_1" xmlns="http://www.w3.org/2000/svg" xmlns:xlink="http://www.w3.org/1999/xlink" x="0px" y="0px"
	 width="46px" height="46px" viewBox="0 0 46 46" enable-background="new 0 0 46 46" xml:space="preserve">
<path fill-rule="evenodd" clip-rule="evenodd" fill="#6E7580" d="M40,22.51c0,1.04-0.51,3.84-0.64,4.43
	C37.2,35.859,29.62,39.7,23.32,39.7c-2.17,0-4.391-0.39-6.5-1.37c-0.38-0.13-0.82-0.46-1.01-0.46c0,0-2.87,3.13-3.32,3.13
	c-0.311,0-0.57-0.26-0.63-0.65c-0.45-3.06-0.891-9.18-0.891-9.31V29.8h9.23c0.38,0,1.34,0.07,1.34,0.72
	c0,0.711-2.55,3.451-2.87,3.84c1.27,0.521,2.93,0.711,4.27,0.711c4.33,0,9.99-2.34,11.71-8.26c0.319-1.311,0.699-2.48,0.83-3.721
	c0.13-2.73,0.699-2.34,2.229-2.34C39.04,20.75,40,20.68,40,22.51z M34.21,5.84c0.19,2.93,0.82,8.59,0.82,8.79v0.52h-9.36
	c-0.38-0.06-1.27-0.13-1.27-0.78c0-0.72,2.479-3.45,2.869-3.78c-1.34-0.58-3-0.71-4.27-0.71c-1.59,0-2.48,0.13-4.2,0.65
	c-0.45,0.13-0.89,0.32-1.21,0.45c-0.45,0.2-1.02,0.46-1.4,0.72c-3.89,2.15-5.16,6.25-5.67,9.38c-0.13,0.58-0.06,1.36-0.19,2.01
	c-0.26,1.37-1.34,1.18-2.1,1.18c-0.19,0-0.89,0-1.27-0.129C6.7,24.07,6,23.42,6,23.09v-1.95c0.13-0.91,0.25-1.95,0.45-2.8
	c1.78-8.98,9.8-13.15,16.1-13.15c0.2,0,1.15,0.06,1.66,0.06c1.271,0.07,2.74,0.46,4.14,0.98c0.57,0.2,1.59,0.85,1.721,0.85
	c0.189,0,1.91-2.09,2.99-3c0.06-0.13,0.189-0.06,0.379-0.06C34.14,4.02,34.21,5.45,34.21,5.84z"/>
</svg>
