<?xml version="1.0" encoding="utf-8"?>
<!-- Generator: Adobe Illustrator 15.1.0, SVG Export Plug-In . SVG Version: 6.00 Build 0)  -->
<!DOCTYPE svg PUBLIC "-//W3C//DTD SVG 1.1//EN" "http://www.w3.org/Graphics/SVG/1.1/DTD/svg11.dtd">
<svg version="1.1" id="Layer_1" xmlns="http://www.w3.org/2000/svg" xmlns:xlink="http://www.w3.org/1999/xlink" x="0px" y="0px"
	 width="46px" height="46px" viewBox="0 0 46 46" enable-background="new 0 0 46 46" xml:space="preserve">
<path fill-rule="evenodd" clip-rule="evenodd" fill="#6E7580" d="M26.82,7.78v15.27h0.82V10.63C28.18,9.25,29,8.7,30.09,8.7
	c1.27,0,2.46,1.1,2.46,2.39v11.96h0.72v-6.53c0.551-1.75,1.371-2.03,2.461-2.03s2.449,0.83,2.449,2.12v11.951
	c-0.27,1.84-0.729,3.59-1,5.34C37,34.91,36.73,36.2,36.55,37.3c-0.1,0.55-0.19,1.19-0.46,1.75C36,39.141,35,40.15,34.641,40.15h-16
	c-0.82-0.18-1.73-1.01-2.28-1.75c-2.63-3.771-5.54-7.45-8.27-11.221c-0.27-0.459-0.27-1.1-0.27-1.38c0-1.739,1.45-2.75,2.82-2.75
	c2.45,0,3.63,3.58,5.54,5.61l0.09-17.75c0.09-1.29,1.37-2.21,2.46-2.21c0.82,0,2.45,0.74,2.45,2.02v12.33H22V7.69
	c0.18-1.29,1.55-1.84,2.359-1.84C25.18,5.85,26.82,6.59,26.82,7.78z M29.09,5.94h1.82c2.359,0.09,4.91,3.5,4.359,5.7
	c3.09-0.36,5.73,2.39,5.73,5.06v11.68c-0.09,0.55-0.18,1.101-0.27,1.56c-0.461,2.951-1.28,5.801-1.641,8.83
	C38.82,40.891,36.45,43,34.641,43H18.73c-1.46-0.18-2.82-0.641-4.09-2.21c-1.64-2.11-3.19-4.229-4.73-6.34
	C7.36,30.68,5,28.93,5,25.9c0-3.22,2.45-5.7,5.64-5.7c0.72,0,2.09,0.27,2.72,0.73l0.09-9.65c-0.27-2.03,2.19-5.25,4.37-5.34
	c0.63,0,1.27,0,1.91-0.09C20.55,3.83,22.91,3,24.359,3C25.82,3,28.18,3.83,29.09,5.94z"/>
</svg>
