<?xml version="1.0" encoding="utf-8"?>
<!-- Generator: Adobe Illustrator 15.1.0, SVG Export Plug-In . SVG Version: 6.00 Build 0)  -->
<!DOCTYPE svg PUBLIC "-//W3C//DTD SVG 1.1//EN" "http://www.w3.org/Graphics/SVG/1.1/DTD/svg11.dtd">
<svg version="1.1" id="Layer_1" xmlns="http://www.w3.org/2000/svg" xmlns:xlink="http://www.w3.org/1999/xlink" x="0px" y="0px"
	 width="46px" height="46px" viewBox="0 0 46 46" enable-background="new 0 0 46 46" xml:space="preserve">
<path fill-rule="evenodd" clip-rule="evenodd" fill="#6E7580" d="M12.16,37.24V9.44C8.43,10.12,5.05,11.14,2,11.81L10.46,43
	l18.29-4.75c-0.34-0.33-0.34-0.67-0.68-1.01H12.16z M40.6,11.14c-2.709-2.72-5.42-5.43-8.129-7.8v7.8
	C39.58,11.47,40.26,11.47,40.6,11.14z M27.061,12.49v1.7h-8.13v-1.7H27.061z M30.1,3H14.53v31.529c10.83,0.33,11.51,0.33,11.85,0
	c-2.03-2.379-3.05-4.75-2.71-7.119h-5.08v-2.381h5.42c0-0.34,0.34-1.01,0.34-2.369c-2.03,0.34-4.07,0.34-5.76,0v-1.35l0.68-0.68
	h6.77c0.34-0.68,1.021-1.36,1.69-1.7H18.59v-2.71c14.221,0.34,15.24,0,16.25,0c1.7,0,4.07,0.68,5.76,1.7v-4.41H30.1V3z M31.21,28.2
	c0,2.43,2,4.399,4.46,4.399s4.46-1.97,4.46-4.399c0-2.431-2-4.4-4.46-4.4S31.21,25.77,31.21,28.2z M42.63,28.08
	c0,4.07-3.05,7.12-7.11,7.12c-4.06,0-7.109-3.05-7.109-7.12c0-4.061,3.05-7.11,7.109-7.11C39.58,20.97,42.63,24.02,42.63,28.08z
	 M45,28.08c0-5.42-4.061-9.49-9.48-9.49s-9.479,4.07-9.479,9.49c0,5.43,4.06,9.5,9.479,9.5S45,33.51,45,28.08z"/>
</svg>
