<?xml version="1.0" encoding="utf-8"?>
<!-- Generator: Adobe Illustrator 15.1.0, SVG Export Plug-In . SVG Version: 6.00 Build 0)  -->
<!DOCTYPE svg PUBLIC "-//W3C//DTD SVG 1.1//EN" "http://www.w3.org/Graphics/SVG/1.1/DTD/svg11.dtd">
<svg version="1.1" id="Layer_1" xmlns="http://www.w3.org/2000/svg" xmlns:xlink="http://www.w3.org/1999/xlink" x="0px" y="0px"
	 width="46px" height="46px" viewBox="0 0 46 46" enable-background="new 0 0 46 46" xml:space="preserve">
<path fill-rule="evenodd" clip-rule="evenodd" fill="#6E7580" d="M37.27,39.05c0,1.671-1.43,2.95-2.959,2.95
	c-1.811,0-2.86-1.37-2.86-3.04c0-1.569,1.239-2.95,2.86-2.95C36.13,36.01,37.27,37.58,37.27,39.05z M21.04,39.05
	c0,1.771-1.62,2.95-2.96,2.95c-1.81,0-2.86-1.37-2.86-3.04c0-1.569,1.34-2.95,2.86-2.95C19.71,36.01,21.04,37.58,21.04,39.05z
	 M35.74,25.51C35.17,25.7,34.5,25.8,33.93,25.9c-0.09-0.101-0.09-0.291-0.09-3.141h2.76C36.32,23.64,36.029,24.62,35.74,25.51z
	 M32.21,22.76v3.34l-5.149,0.59v-3.93H32.21z M25.34,22.76v4.221c-1.62,0.1-3.34,0.39-5.06,0.59V22.76H25.34z M18.56,22.76v5.1
	c-0.38-0.09-0.86,0-1.91,0l-1.33-5.1H18.56z M38.42,16.67l-1.34,4.42h-3.24v-4.42H38.42z M32.21,16.67v4.42h-5.149v-4.42H32.21z
	 M25.34,16.67v4.42h-5.06v-4.42H25.34z M18.56,16.67v4.42h-3.72l-1.15-4.42H18.56z M40.04,11.17c-0.38,1.38-0.67,2.56-1.05,3.73
	h-5.15v-3.73H40.04z M32.21,11.17v3.73h-5.149v-3.73H32.21z M25.34,11.17v3.73h-5.06v-3.73H25.34z M18.56,11.17v3.73h-5.35
	c-0.28-1.17-0.57-2.45-0.95-3.73H18.56z M9.3,4.01c0.29,0,0.57,0,0.76,0.19c0.29,0.4,0.48,0.99,0.58,1.48
	c0.19,0.88,0.67,2.06,0.95,3.04h30.46C42.71,8.82,43,9.6,43,9.9c0,0.29-3.34,11.88-5.35,17.571c-0.28,0.789-1.141,0.489-1.621,0.59
	c-0.76,0-1.619,0.199-2.479,0.289c-1.05,0.2-2.2,0.301-3.149,0.4c-4.391,0.59-8.98,0.98-13.371,1.67c-0.38,0-0.28,0.391-0.28,0.68
	c0,0.791,0.95,0.98,1.62,0.98l9.739-0.98h7.73c1.24,0.101,2.2-0.1,2.2,1.28c0,0.49-0.2,0.88-0.96,1.181l-8.301-0.101L18.18,34.439
	c-2.67,0-3.82-1.369-3.82-3.34c0-0.289,0.19-1.27,0.19-1.57c0-0.189-0.76-2.649-1.05-3.92c-1.72-6.29-3.24-13.06-5.15-19.25H3.86
	C3.38,6.07,3,5.58,3,5.19c0-0.4,0.29-1.28,1.05-1.18H9.3z"/>
</svg>
