<?xml version="1.0" encoding="utf-8"?>
<!-- Generator: Adobe Illustrator 15.1.0, SVG Export Plug-In . SVG Version: 6.00 Build 0)  -->
<!DOCTYPE svg PUBLIC "-//W3C//DTD SVG 1.1//EN" "http://www.w3.org/Graphics/SVG/1.1/DTD/svg11.dtd">
<svg version="1.1" id="Layer_1" xmlns="http://www.w3.org/2000/svg" xmlns:xlink="http://www.w3.org/1999/xlink" x="0px" y="0px"
	 width="46px" height="46px" viewBox="0 0 46 46" enable-background="new 0 0 46 46" xml:space="preserve">
<path fill-rule="evenodd" clip-rule="evenodd" fill="#6E7580" d="M18.26,29.23c-2.78,2.189-5.65,4.289-8.33,6.56
	c-0.18,0.09-0.18,0.37-0.18,0.55c0,0.73,0.54,1.09,1.07,1.09c0.81,0,7.98-5.92,9.32-6.92c0.09,0,2.78,2.28,3.32,2.28
	c0.53,0,3.31-2.28,3.49-2.28c2.96,2.37,5.909,4.641,8.87,6.83c0.09,0.09,0.09,0.09,0.359,0.09c0.711,0,1.07-0.64,1.07-1.09
	c0-0.18,0-0.369-0.18-0.46c-2.68-2.36-5.551-4.46-8.33-6.649l11.199-8.101v17.49c-0.27,0.45-1.08,1.271-1.43,1.271H8.4
	c-0.71-0.181-1.34-0.82-1.34-1.361V21.13L18.26,29.23z M32.32,11.74c0.27,0,0.449,0.1,0.63,0.28v11.57l-9.49,6.74l-9.41-6.74V12.02
	c0.18-0.18,0.36-0.28,0.54-0.28H32.32z M32.95,9.74c0.63-0.18,2.06,1.18,2.06,2v10.39l4.391-3.19c-0.18-0.18-3.131-2.37-3.131-3.19
	c0-0.63,0.53-1,0.98-1c0.27,0,4.75,3.55,4.75,3.92V38.8c-0.09,1.729-2.061,3.19-3.58,3.19H8.49C7.24,42.17,5,40.439,5,38.891V18.67
	c0.45-0.64,4.21-3.92,4.75-3.92c0.71,0,0.98,0.55,0.98,1c0,0.82-3.04,3.01-3.13,3.19l4.39,3.1v-10.3c0.09-0.82,1.16-2,1.97-2H32.95z
	 M28.29,6.83c0.181,0.09,0.271,0.36,0.271,0.54c0,0.82-0.631,1-1.07,1c-0.811,0-3.59-2.82-3.95-3.09c-0.62,0.36-3.22,3.09-4.12,3.09
	c-0.71,0-0.89-0.45-0.89-1c0-0.82,2.33-2.46,2.78-2.91C21.84,4,22.47,3.55,23.1,3h0.36C24.35,3,28.2,6.64,28.29,6.83z"/>
</svg>
