<?xml version="1.0" encoding="utf-8"?>
<!-- Generator: Adobe Illustrator 15.1.0, SVG Export Plug-In . SVG Version: 6.00 Build 0)  -->
<!DOCTYPE svg PUBLIC "-//W3C//DTD SVG 1.1//EN" "http://www.w3.org/Graphics/SVG/1.1/DTD/svg11.dtd">
<svg version="1.1" id="Layer_1" xmlns="http://www.w3.org/2000/svg" xmlns:xlink="http://www.w3.org/1999/xlink" x="0px" y="0px"
	 width="54px" height="46px" viewBox="0 0 54 46" enable-background="new 0 0 54 46" xml:space="preserve">
<path fill-rule="evenodd" clip-rule="evenodd" fill="#6E7580" d="M13.53,41H1v-5.641c0.12-0.379,0.12-0.889,0.5-1.149
	c3.1-3.069,6.45-5.12,9.68-6.79L13.53,41z M41.09,8.07c0.49,0.39,0.86,1.03,1.36,1.41c0.25,0.39,0.989,0.52,1.37,1.16
	c0.24,0.25,0.74,2.43,0.74,3.07c0,0.26-0.25,2.05-0.5,3.08c0.75,0.64,0.869,0.64,0.869,1.41c0,1.02-0.74,2.69-1.49,3.84
	c-0.489,0.64-0.859,1.92-0.859,2.31v3.58c1.73,1.03,10.42,5.51,10.42,7.82V41H22.22l2.36-13.58l4.22,2.43
	c1.12-0.64,2.36-1.279,3.47-2.05v-3.45c-0.369-0.649-0.74-1.669-0.99-2.31c0-0.13-0.369-0.26-0.489-0.51c-0.38-0.77-1-2.57-1-3.46
	c0-1.28,0.87-0.9,0.87-1.41c0-0.26-0.37-2.05-0.37-2.31c0-3.58,3.47-7.3,7.2-7.3C38.85,7.05,39.221,6.79,41.09,8.07z M19,5
	c0.99,0,2.35,0.38,3.22,1.67c0.25,0.25,0.25,0.76,0.62,1.02c0.25,0.26,1.49,0.51,1.86,1.28c0.38,0.64,0.87,2.18,0.87,3.08
	c0,0.25-0.37,2.43-0.37,2.81c0,0.39,0.87,0.39,0.87,1.41c0,0.39-0.37,2.18-0.87,3.21c-0.12,0.38-0.74,0.77-0.87,1.15
	c-0.37,0.64-0.87,2.05-0.87,2.43v2.44l-5.09,3.971c0.63,0.77,1.87,2.18,1.87,2.43c0,0.39-1,1.67-1.24,2.31L19.86,41h-3.97l1-6.92
	c-0.38-0.641-0.87-1.41-1.37-2.18c0.62-0.76,1.86-2.17,1.86-2.43c0-0.381-3.22-2.561-4.96-3.971c0-0.641,0-1.54-0.13-2.18
	c-0.12-1.02-0.62-2.05-0.99-2.82c-0.12-0.25-0.5-0.38-0.62-0.64c-0.62-1.15-0.87-2.43-0.87-3.46v-0.38
	c-0.25-0.77,0.75-0.64,0.75-1.16c0-0.38-0.13-1.15-0.25-3.84c0.12-1.41,0.87-3.46,2.73-4.61C12.67,6.02,12.29,5.38,12.42,5
	c0.99,0.13,2.85,0.26,3.1,0.26C15.89,5.26,18.75,5,19,5z"/>
</svg>
