<?xml version="1.0" encoding="utf-8"?>
<!-- Generator: Adobe Illustrator 15.1.0, SVG Export Plug-In . SVG Version: 6.00 Build 0)  -->
<!DOCTYPE svg PUBLIC "-//W3C//DTD SVG 1.1//EN" "http://www.w3.org/Graphics/SVG/1.1/DTD/svg11.dtd">
<svg version="1.1" id="Layer_1" xmlns="http://www.w3.org/2000/svg" xmlns:xlink="http://www.w3.org/1999/xlink" x="0px" y="0px"
	 width="151px" height="34px" viewBox="0 0 151 34" enable-background="new 0 0 151 34" xml:space="preserve">
<path fill-rule="evenodd" clip-rule="evenodd" fill="#FFFFFF" d="M17.695,4.414c-0.457-0.085-1-0.162-1.619-0.209
	c-0.619-0.057-1.313-0.086-2.075-0.086c-2.142,0-3.836,0.504-5.064,1.514C7.719,6.631,6.929,7.84,6.577,9.839L6.5,10.287h5.026
	l0.019-0.133c0.19-1.057,0.485-1.476,0.914-1.846c0.429-0.362,1.152-0.552,2.17-0.552c0.419,0,0.809,0.047,1.162,0.133
	c0.361,0.086,0.647,0.162,0.866,0.229h0.39L17.695,4.414z M5.777,15.018L3.636,26.943h5.197l2.142-11.926H5.777z"/>
<polygon fill-rule="evenodd" clip-rule="evenodd" fill="#FFFFFF" points="4.273,10.867 3.655,14.427 14.916,14.427 15.534,10.867 
	"/>
<path fill-rule="evenodd" clip-rule="evenodd" fill="#FFFFFF" d="M23.701,23.555c-0.466,0.162-0.923,0.238-1.399,0.238
	c-0.552,0-1.018-0.076-1.418-0.258c-0.399-0.18-0.724-0.455-0.961-0.836c-0.248-0.391-0.4-0.924-0.447-1.58
	c-0.048-0.648,0-1.42,0.162-2.322c0.181-1,0.419-1.829,0.724-2.485c0.305-0.666,0.647-1.189,1.028-1.561
	c0.429-0.409,0.847-0.676,1.266-0.819c0.409-0.133,0.866-0.209,1.371-0.209c0.495,0,0.952,0.095,1.352,0.257
	c0.399,0.162,0.724,0.447,0.961,0.837c0.248,0.4,0.39,0.914,0.457,1.561c0.057,0.657,0,1.466-0.162,2.418
	c-0.181,1.047-0.41,1.846-0.676,2.445c-0.276,0.59-0.609,1.094-1.019,1.504C24.567,23.117,24.158,23.393,23.701,23.555z
	 M30.821,12.4c-1.285-1.552-3.332-2.333-6.159-2.333c-2.789,0-5.111,0.781-6.939,2.323c-1.837,1.542-2.989,3.664-3.464,6.377
	c-0.476,2.684-0.067,4.816,1.218,6.367c1.285,1.543,3.332,2.322,6.14,2.322c2.817,0,5.13-0.779,6.968-2.322
	c1.818-1.551,2.97-3.684,3.446-6.367C32.496,16.074,32.096,13.961,30.821,12.4z M42.928,22.441
	c-0.533,0.162-1.057,0.238-1.571,0.238c-1.151,0-1.961-0.305-2.437-0.934c-0.485-0.619-0.581-1.713-0.295-3.283
	c0.248-1.418,0.781-2.522,1.6-3.312c0.818-0.79,1.922-1.19,3.293-1.19c0.333,0,0.714,0.028,1.143,0.104
	c0.419,0.076,0.761,0.181,1.047,0.305l-1.295,7.413C43.947,22.051,43.452,22.279,42.928,22.441z M51.581,10.582h-5.045l-0.314,0.724
	c-0.533-0.361-1.142-0.647-1.818-0.866c-0.676-0.2-1.457-0.314-2.333-0.314c-0.971,0-1.951,0.191-2.951,0.571
	c-0.99,0.372-1.875,0.904-2.627,1.59c-0.809,0.733-1.485,1.58-2.037,2.56c-0.552,0.99-0.942,2.151-1.171,3.494
	c-0.504,2.816-0.247,4.92,0.743,6.299c1,1.383,2.637,2.066,4.912,2.066c0.923,0,1.79-0.143,2.608-0.447
	c0.809-0.305,1.58-0.703,2.303-1.229l-0.057,0.305c-0.124,0.688-0.295,1.268-0.514,1.752s-0.504,0.875-0.847,1.189
	c-0.381,0.334-0.895,0.59-1.522,0.771c-0.638,0.182-1.428,0.266-2.39,0.266c-0.733,0-1.532-0.104-2.398-0.313
	c-0.885-0.209-1.618-0.438-2.208-0.686h-0.638l-0.714,4.092c0.761,0.191,1.685,0.354,2.75,0.496
	c1.066,0.123,2.171,0.199,3.294,0.199c1.39,0,2.646-0.133,3.808-0.391c1.142-0.285,2.16-0.713,3.045-1.313
	c0.886-0.59,1.638-1.418,2.256-2.457c0.618-1.057,1.056-2.34,1.323-3.883L51.581,10.582z M65.82,18.863
	c-0.514-0.771-1.438-1.333-2.732-1.695c-0.59-0.152-1.18-0.276-1.78-0.39c-0.589-0.104-1.142-0.2-1.646-0.314
	c-0.942-0.2-1.513-0.41-1.742-0.619c-0.219-0.191-0.286-0.486-0.219-0.886c0.076-0.418,0.41-0.752,1.019-0.98
	c0.619-0.238,1.352-0.353,2.18-0.353c1.018,0,1.989,0.172,2.913,0.504c0.923,0.333,1.732,0.771,2.408,1.295h0.438l0.733-4.131
	c-0.58-0.276-1.409-0.542-2.475-0.79c-1.066-0.247-2.199-0.381-3.408-0.381c-2.57,0-4.683,0.533-6.339,1.571
	c-1.666,1.047-2.627,2.351-2.894,3.921c-0.219,1.228-0.048,2.247,0.523,3.073c0.562,0.83,1.551,1.43,2.97,1.811
	c0.504,0.143,1.076,0.275,1.723,0.371c0.638,0.104,1.142,0.199,1.513,0.285c0.79,0.162,1.304,0.344,1.561,0.523
	c0.248,0.18,0.343,0.467,0.286,0.857c-0.095,0.447-0.39,0.789-0.923,1.018c-0.533,0.229-1.304,0.344-2.322,0.344
	c-0.781,0-1.495-0.076-2.151-0.238s-1.237-0.354-1.732-0.58c-0.59-0.258-1.038-0.486-1.333-0.705
	c-0.305-0.209-0.571-0.42-0.79-0.609h-0.485l-0.752,4.313c0.657,0.334,1.542,0.637,2.675,0.914c1.124,0.256,2.409,0.398,3.855,0.398
	c2.608,0,4.75-0.514,6.434-1.551c1.685-1.029,2.665-2.4,2.97-4.094C66.496,20.604,66.334,19.633,65.82,18.863z M77.062,23.555
	c-0.457,0.162-0.924,0.238-1.399,0.238c-0.542,0-1.018-0.076-1.418-0.258c-0.4-0.18-0.724-0.455-0.961-0.836
	c-0.247-0.391-0.4-0.924-0.438-1.58c-0.057-0.648,0-1.42,0.153-2.322c0.181-1,0.418-1.829,0.723-2.485
	c0.305-0.666,0.647-1.189,1.028-1.561c0.429-0.409,0.847-0.676,1.266-0.819c0.41-0.133,0.866-0.209,1.371-0.209
	c0.494,0,0.951,0.095,1.36,0.257c0.4,0.162,0.715,0.447,0.952,0.837c0.247,0.4,0.399,0.914,0.457,1.561
	c0.058,0.657,0,1.466-0.161,2.418c-0.172,1.047-0.41,1.846-0.677,2.445c-0.275,0.59-0.609,1.094-1.02,1.504
	C77.928,23.117,77.519,23.393,77.062,23.555z M84.182,12.4c-1.276-1.552-3.331-2.333-6.158-2.333c-2.789,0-5.112,0.781-6.939,2.323
	c-1.837,1.542-2.989,3.664-3.464,6.377c-0.476,2.684-0.067,4.816,1.218,6.367c1.285,1.543,3.341,2.322,6.149,2.322
	c2.809,0,5.121-0.779,6.958-2.322c1.818-1.551,2.971-3.684,3.446-6.367C85.856,16.074,85.457,13.961,84.182,12.4z M100.182,4.414
	c-0.456-0.085-0.999-0.162-1.617-0.209c-0.619-0.057-1.314-0.086-2.075-0.086c-2.143,0-3.837,0.504-5.063,1.514
	c-1.229,0.999-2.02,2.493-2.361,4.492l-0.086,0.457h-2.218l-0.619,3.56h2.219l-2.237,12.802h5.197l2.237-12.802h3.845l0.619-3.56
	h-4.007l0.02-0.143c0.18-1.057,0.485-1.761,0.912-2.132c0.429-0.362,1.153-0.552,2.171-0.552c0.419,0,0.81,0.047,1.161,0.133
	c0.362,0.086,0.638,0.162,0.866,0.229h0.391L100.182,4.414z M98.439,26.943l6.264-4.598l1.438-8.204h4.874l0.618-3.56h-4.873
	l0.818-4.683h-5.197l-0.818,4.683h-2.132l-0.628,3.56h2.142L98.439,26.943z"/>
<polygon fill-rule="evenodd" clip-rule="evenodd" fill="#FFFFFF" points="128.595,13.171 133.316,20.053 147.175,10.411 
	133.012,10.411 "/>
<polygon fill-rule="evenodd" clip-rule="evenodd" fill="#FFFFFF" points="120.628,1.691 141.616,1.691 147.365,9.725 120.628,9.725 
	"/>
</svg>
