<?xml version="1.0" encoding="utf-8"?>
<!-- Generator: Adobe Illustrator 15.1.0, SVG Export Plug-In . SVG Version: 6.00 Build 0)  -->
<!DOCTYPE svg PUBLIC "-//W3C//DTD SVG 1.1//EN" "http://www.w3.org/Graphics/SVG/1.1/DTD/svg11.dtd">
<svg version="1.1" id="Layer_1" xmlns="http://www.w3.org/2000/svg" xmlns:xlink="http://www.w3.org/1999/xlink" x="0px" y="0px"
	 width="154px" height="28px" viewBox="0 0 154 28" enable-background="new 0 0 154 28" xml:space="preserve">
<g>
	<g>
		<g>
			<polygon fill-rule="evenodd" clip-rule="evenodd" fill="#44BBC1" points="15.67,14.19 15.67,27 7.88,27 7.88,17.29 1.22,6.19 			
				"/>
			<path fill-rule="evenodd" clip-rule="evenodd" fill="#44BBC1" d="M16.22,5.02C16.22,2.8,14.4,1,12.16,1
				C9.91,1,8.09,2.8,8.09,5.02c0,2.23,1.82,4.03,4.07,4.03C14.4,9.05,16.22,7.25,16.22,5.02z"/>
		</g>
	</g>
	<g>
		<g>
			<polygon fill-rule="evenodd" clip-rule="evenodd" fill="#A0ACBF" points="34.729,6.85 21.22,6.85 21.22,10.05 26.1,10.05 
				26.1,26.71 29.83,26.71 29.83,10.05 34.729,10.05 			"/>
			<path fill-rule="evenodd" clip-rule="evenodd" fill="#A0ACBF" d="M37.35,18.12c0.11-1.399,0.88-3.28,2.72-3.28
				c1.88,0,2.48,1.811,2.45,3.28H37.35z M44.74,23.54c-0.96,0.33-2.04,0.58-3.46,0.58c-2.07,0-3.82-0.95-3.93-3.341h8.53
				c0.08-0.409,0.1-0.949,0.1-1.52c0-4.6-2.22-7.08-5.68-7.08c-4.23,0-6.63,3.55-6.63,7.65c0,4.37,2.56,7.17,7.02,7.17
				c1.78,0,3.42-0.311,4.58-0.83L44.74,23.54z"/>
			<path fill-rule="evenodd" clip-rule="evenodd" fill="#A0ACBF" d="M60.06,17.971c0-3.951-1.99-5.801-4.58-5.801
				c-2.07,0-3.48,1.2-4.11,2.26h-0.08l-0.17-1.96h-3.23c0.05,1.25,0.1,2.61,0.1,4.27v9.97h3.73V18.23c0-2.121,1.41-2.91,2.43-2.91
				c1.62,0,2.18,1.369,2.18,3.109v8.28h3.73V17.971z"/>
			<path fill-rule="evenodd" clip-rule="evenodd" fill="#A0ACBF" d="M70.939,20.87c0,2.3-1.43,3.12-2.55,3.12
				c-1.79,0-2.86-1.721-2.86-4.33c0-2.49,0.97-4.5,2.91-4.5c1.25,0,2.5,1.029,2.5,3.109V20.87z M74.67,6h-3.73v7.85h-0.05
				c-0.56-0.95-1.76-1.62-3.42-1.62c-3.04,0-5.67,2.6-5.67,7.491c0,4.35,2.25,7.199,5.44,7.199c1.74,0,3.27-0.859,4.01-2.21h0.07
				l0.18,2h3.28c-0.05-1.05-0.11-2.64-0.11-4.069V6z"/>
			<path fill-rule="evenodd" clip-rule="evenodd" fill="#A0ACBF" d="M80.12,18.12c0.1-1.399,0.879-3.28,2.709-3.28
				c1.891,0,2.48,1.811,2.461,3.28H80.12z M87.51,23.54c-0.96,0.33-2.04,0.58-3.46,0.58c-2.07,0-3.83-0.95-3.93-3.341h8.529
				c0.08-0.409,0.1-0.949,0.1-1.52c0-4.6-2.219-7.08-5.68-7.08c-4.229,0-6.63,3.55-6.63,7.65c0,4.37,2.56,7.17,7.011,7.17
				c1.789,0,3.43-0.311,4.59-0.83L87.51,23.54z"/>
			<path fill-rule="evenodd" clip-rule="evenodd" fill="#A0ACBF" d="M98.52,12.2c-0.26-0.02-0.489-0.04-0.85-0.04
				c-1.351,0-2.89,0.97-3.56,2.85H94.01l-0.149-2.54h-3.201c0.051,1.27,0.101,2.68,0.101,4.45v9.79h3.729v-7.37
				c0-2.35,1.32-3.49,3.051-3.49c0.38,0,0.689,0.021,0.979,0.07V12.2z"/>
		</g>
		<g>
			<path fill-rule="evenodd" clip-rule="evenodd" fill="#44BBC1" d="M114.93,7.43c-0.899-0.47-2.3-0.91-4.22-0.91
				c-4.37,0-6.85,2.51-6.85,5.78c0,2.59,1.799,4.46,4.779,5.761c2.29,0.959,3.28,1.81,3.28,3.239c0,1.479-1.15,2.49-3.36,2.49
				c-1.62,0-3.23-0.49-4.23-1.11l-0.729,3.2c0.91,0.57,2.84,1.11,4.8,1.11c4.73,0,7.25-2.53,7.25-6c0-2.62-1.369-4.461-4.51-5.891
				c-2.529-1.12-3.55-1.77-3.55-3.189c0-1.12,0.94-2.21,3.04-2.21c1.67,0,2.85,0.5,3.52,0.86L114.93,7.43z"/>
			<path fill-rule="evenodd" clip-rule="evenodd" fill="#44BBC1" d="M122.2,15.721V9.6c0.319-0.1,0.92-0.16,1.789-0.16
				c1.41,0,3.36,0.5,3.36,3.09c0,1.91-1.34,3.191-3.55,3.191H122.2z M127.749,17.189c1.811-0.729,3.33-2.54,3.33-5
				c0-5.36-4.989-5.67-7.539-5.67c-1.95,0-3.771,0.18-5.07,0.42v19.77h3.73V18.6h1.31c1.84,0,2.649,0.811,3.18,3.381
				c0.47,2.42,0.96,4.16,1.24,4.729h3.84c-0.38-0.75-0.899-3.14-1.45-5.51c-0.449-2.03-1.209-3.38-2.57-3.931V17.189z"/>
			<path fill-rule="evenodd" clip-rule="evenodd" fill="#44BBC1" d="M152.09,6.81h-4.66l-2.229,7.45
				c-0.66,2.381-1.25,4.801-1.711,7.03h-0.08c-0.439-2.29-1-4.62-1.64-7.03l-2.13-7.45h-4.68l-1.34,19.9h3.459l0.391-7.681
				c0.12-2.469,0.25-5.419,0.3-7.939h0.08c0.46,2.44,1.08,5.141,1.72,7.391l2.17,7.939h2.871l2.409-8.07
				c0.67-2.229,1.38-4.87,1.95-7.26h0.07c-0.021,2.52,0.109,5.221,0.209,7.86l0.361,7.76h3.609L152.09,6.81z"/>
		</g>
	</g>
</g>
</svg>
