<?xml version="1.0" encoding="utf-8"?>
<!-- Generator: Adobe Illustrator 15.1.0, SVG Export Plug-In . SVG Version: 6.00 Build 0)  -->
<!DOCTYPE svg PUBLIC "-//W3C//DTD SVG 1.1//EN" "http://www.w3.org/Graphics/SVG/1.1/DTD/svg11.dtd">
<svg version="1.1" id="Layer_1" xmlns="http://www.w3.org/2000/svg" xmlns:xlink="http://www.w3.org/1999/xlink" x="0px" y="0px"
	 width="46px" height="46px" viewBox="0 0 46 46" enable-background="new 0 0 46 46" xml:space="preserve">
<path fill-rule="evenodd" clip-rule="evenodd" fill="#6E7580" d="M29.971,18.21l-8.281,9.05L16.79,23l-2.88,2.88l7.67,6.74
	l11.15-11.33L29.971,18.21z M10.25,13.13h0.11v-2.28H8v17.259V43h21.46L38,34.721V10.85l-2.27,0.02l0.02,22.22h-7.59l-0.27,0.15
	v7.47H10.25V33.73V13.13z M25.641,8.2h-5.46V5.61l5.45-0.01C25.63,8.2,25.641,8.2,25.641,8.2z M33,8.2h-4.63V5.6
	c0-1.43-1.229-2.6-2.729-2.6h-5.46c-1.5,0-2.72,1.17-2.72,2.6v2.6h-4.64v5.21H33V8.2z"/>
</svg>
