<?xml version="1.0" encoding="utf-8"?>
<!-- Generator: Adobe Illustrator 15.1.0, SVG Export Plug-In . SVG Version: 6.00 Build 0)  -->
<!DOCTYPE svg PUBLIC "-//W3C//DTD SVG 1.1//EN" "http://www.w3.org/Graphics/SVG/1.1/DTD/svg11.dtd">
<svg version="1.1" id="Layer_1" xmlns="http://www.w3.org/2000/svg" xmlns:xlink="http://www.w3.org/1999/xlink" x="0px" y="0px"
	 width="46px" height="46px" viewBox="0 0 46 46" enable-background="new 0 0 46 46" xml:space="preserve">
<path fill-rule="evenodd" clip-rule="evenodd" fill="#6E7580" d="M13.29,12.63v6.07h6.28v-6.07H13.29z M13.29,21.74v6.07h6.28v-6.07
	H13.29z M13.29,30.85v6.08h6.28v-6.08H13.29z M22.71,14.15v3.04h11v-3.04H22.71z M22.71,20.22v3.04h11v-3.04H22.71z M22.71,26.3
	v3.03h11V26.3H22.71z M22.71,32.37v3.04h11v-3.04H22.71z M37.61,39.061c0,0,0.069,0.629-0.23,0.949c-0.31,0.33-0.89,0.28-0.89,0.28
	l-26.23,0.021c0,0-0.37-0.011-0.649-0.32c-0.24-0.26-0.24-0.82-0.24-0.82l0.01-28.91c0,0,0-0.43,0.26-0.65
	c0.29-0.25,0.7-0.27,0.7-0.27h26.23c0,0,0.5-0.02,0.729,0.21c0.32,0.31,0.311,0.63,0.311,0.63V39.061z M37.28,6.64h-6.32
	c-0.06-0.77-0.24-1.58-0.8-1.58h-1.43c-0.011-0.6-0.11-1.39-0.57-1.39h-2.44c0.16-0.18,0.25-0.4,0.25-0.64
	c0-0.57-0.54-1.03-1.21-1.03h-2.41c-0.67,0-1.21,0.46-1.21,1.03c0,0.25,0.09,0.46,0.25,0.64h-2.54c-0.42,0-0.56,0.8-0.58,1.39h-1.41
	c-0.51,0-0.74,0.82-0.811,1.58H9.72C8.21,6.64,7,7.84,7,9.33v30.98C7,41.79,8.21,43,9.72,43H37.28c1.51,0,2.72-1.21,2.72-2.689V9.33
	C40,7.84,38.79,6.64,37.28,6.64z"/>
</svg>
