<?xml version="1.0" encoding="utf-8"?>
<!-- Generator: Adobe Illustrator 15.1.0, SVG Export Plug-In . SVG Version: 6.00 Build 0)  -->
<!DOCTYPE svg PUBLIC "-//W3C//DTD SVG 1.1//EN" "http://www.w3.org/Graphics/SVG/1.1/DTD/svg11.dtd">
<svg version="1.1" id="Layer_1" xmlns="http://www.w3.org/2000/svg" xmlns:xlink="http://www.w3.org/1999/xlink" x="0px" y="0px"
	 width="46px" height="46px" viewBox="0 0 46 46" enable-background="new 0 0 46 46" xml:space="preserve">
<path fill-rule="evenodd" clip-rule="evenodd" fill="#6E7580" d="M22.52,27.01c0,1.26-1.01,2.29-2.26,2.29
	c-1.31,0-2.26-1.03-2.26-2.29c0-1.38,0.95-2.22,2.26-2.22C21.69,24.79,22.52,25.75,22.52,27.01z M42.35,28.27
	c0,2.771-1.08,3.25-1.08,6.561c0,1.08,0,1.859,0.541,3.07C42.109,38.5,43,39.58,43,39.7c0,0.18-0.71,0.3-0.77,0.3
	c-1.25,0-3.871-0.9-4.41-1.141c-0.65-0.239-1.9-1.02-2.021-1.02c-0.18,0-0.899,0.36-1.25,0.48c-1.37,0.479-3.45,0.9-4.88,0.9
	c-2.561,0-5.66-0.721-8.1-2.471c0.95-0.061,1.91-0.18,2.86-0.3c2.92-0.479,5.95-1.5,8.93-3.55c2.971-2.041,5.41-5.471,6.311-8.17
	c0.23-0.791,0.471-1.57,0.59-2.351C41.87,24.3,42.35,26.35,42.35,28.27z M27.17,15.76c0,2.77-1.49,4.58-5.24,5.42
	c0.06,1.8-0.66,2.22-1.91,2.22c-0.17,0-0.47-0.06-0.71-0.06c-0.48,0-1.13-0.72-1.13-1.2v-2.65c0.18-1.98,5-0.6,5-3.61
	c0-1.68-1.55-1.98-2.56-1.98c-0.77,0-1.91,0.3-2.5,0.72c-0.66,0.42-1.13,0.78-1.67,0.78c-1.07,0-1.84-0.84-1.84-1.86
	c0-0.54,0.41-1.14,0.89-1.56c1.43-1.21,3.75-1.75,5.3-1.75C24.01,10.23,27.17,11.8,27.17,15.76z M22.58,5
	c8.811,0.66,16.25,6.98,16.25,14.97c0,2.17-0.77,5-2.08,7.04c-3.93,5.891-10.6,8.061-15.6,8.061c-1.48,0-3.09-0.18-4.58-0.541
	c-1.01-0.239-2.14-0.539-3.09-0.959c-0.54-0.19-1.37-0.67-1.55-0.67c-0.12,0-1.49,0.91-2.14,1.27c-0.66,0.359-5.12,1.98-6.55,1.98H3
	c1.19-1.74,1.61-3.61,1.9-5.351v-2.53c-0.35-4.149-1.6-4.81-1.6-8.24C3.3,12.1,10.5,5.6,19.49,5H22.58z"/>
</svg>
