<?xml version="1.0" encoding="utf-8"?>
<!-- Generator: Adobe Illustrator 15.1.0, SVG Export Plug-In . SVG Version: 6.00 Build 0)  -->
<!DOCTYPE svg PUBLIC "-//W3C//DTD SVG 1.1//EN" "http://www.w3.org/Graphics/SVG/1.1/DTD/svg11.dtd">
<svg version="1.1" id="Layer_1" xmlns="http://www.w3.org/2000/svg" xmlns:xlink="http://www.w3.org/1999/xlink" x="0px" y="0px"
	 width="46px" height="46px" viewBox="0 0 46 46" enable-background="new 0 0 46 46" xml:space="preserve">
<path fill-rule="evenodd" clip-rule="evenodd" fill="#6E7580" d="M41.13,38H4.87l18.05-14.63L41.13,38z M28.99,17.07v0.95H12.81
	v-0.95H28.99z M43,15.5v21.24l-13.07-10.7l12.76-10.54H43z M16.23,26.04L3,36.74V15.5L16.23,26.04z M28.99,14.55v0.95H12.81v-0.95
	H28.99z M42.22,13.29l-3.579,2.99v-2.99H42.22z M7.2,13.29c0.16,2.68,0,2.84,0,2.99c-1.09-0.94-2.33-1.88-3.42-2.99H7.2z
	 M28.99,12.04v0.94H12.81v-0.94H28.99z M18.72,9.52v0.78h-5.91V9.52H18.72z M36.93,7v10.54l-8.869,7.08l-5.141-4.09l-5.13,4.09
	L9.07,17.7V7H36.93z"/>
</svg>
