<?xml version="1.0" encoding="utf-8"?>
<!-- Generator: Adobe Illustrator 15.1.0, SVG Export Plug-In . SVG Version: 6.00 Build 0)  -->
<!DOCTYPE svg PUBLIC "-//W3C//DTD SVG 1.1//EN" "http://www.w3.org/Graphics/SVG/1.1/DTD/svg11.dtd">
<svg version="1.1" id="Layer_1" xmlns="http://www.w3.org/2000/svg" xmlns:xlink="http://www.w3.org/1999/xlink" x="0px" y="0px"
	 width="68px" height="46px" viewBox="0 0 68 46" enable-background="new 0 0 68 46" xml:space="preserve">
<path fill-rule="evenodd" clip-rule="evenodd" fill="#6E7580" d="M35.211,18.27c-0.06,0.05-0.14,0.04-0.19,0.04l0.101-0.04H35.211z
	 M35.021,18.31l-0.029,0.01C34.991,18.31,35.011,18.31,35.021,18.31z M34.261,18.47c0.03,0,0.43-0.05,0.73-0.15
	c-0.01,0.01-0.01,0.02,0,0.04c0.27-0.07,0.73-0.05,0.779-0.05c0.03,0,0.11,0.01,0.16,0.03c-0.07,0.05-0.32-0.03-0.32,0.08
	s0.141,0.16,0.201,0.16c0.119,0,0.27,0.05,0.42-0.1c-0.08,0.2-0.131,0.02-0.131,0.18c0,0.05,0,0.31,0.131,0.31
	c0.08,0,0.09-0.21,0.09-0.23c-0.01-0.08,0.16,0.02,0.219-0.02c-0.029,0.12-0.08,0.15-0.08,0.2c0,0.03,0.021,0.08,0.021,0.13
	c0.02,0,0.02,0.01,0.049,0.01c0.061,0,0.281-0.14,0.32-0.18c0,0.1-0.02,0.07-0.02,0.1c0,0.08,0.049,0.23,0.141,0.23
	c0.158,0,0.559,0.4,0.449,0.48v0.05c0,0.09,0.109,0.14,0.16,0.14c0.17,0,0.57,0.66,0.549,0.71c0.021,0.01,0.371,0.69,0.271,0.86
	c0.209,0.12,0.27,0.42,0.27,0.47c0,0.45,0.189,0.75,0.189,0.78c0,0.31,0,0.52-0.08,0.84c-0.059,0.24-0.109,0.53-0.24,0.8
	c-0.109,0.23,0.07,0.471-0.068,0.709c0.049,0.031,0.1,0.031,0.139,0.041c0,0,0.07,0.15,0.07,0.199c0,0.41-0.34,1.65-0.48,1.91
	c-0.029,0.061-0.119,0.24-0.24,0.271c-0.059,0.01-0.139,0.01-0.189,0.049c-0.359,0.189-0.299,1.701-0.299,2.18v0.08
	c0.029,0.031,0.078,0.01,0.109,0.051c0.109,0.189,0.129,0.449,0.26,0.641c0.119,0.189,0.35,0.299,0.539,0.43
	c0.33,0.26,0.682,0.51,1.041,0.66c0.32,0.139,0.689,0.238,1.039,0.379l0.92,0.359c0.73,0.281,0.801,0.592,1.58,0.83
	c0.57,0.191,1.191,0.311,1.781,0.48c0.189,0.051,0.209,0.361,0.299,0.471c1.631,1.859,1.291,7.811,1.34,7.92l-11.289-0.041
	l2.51-11.809c0-0.08-0.08-0.23-0.1-0.23c-0.141,0.16-0.221,0.439-0.381,0.629c-0.299,0.352-0.648,0.48-0.979,0.75
	c-0.511,0.4-3.321,0.051-4.031-0.609c-0.27-0.24-0.48-0.299-0.48-0.58c0-0.029,0.09-0.51,0.09-0.561c0-0.01-0.07-0.09-0.14-0.09
	c-0.27,0-0.32,1.012-0.32,1.061c0,0.48,2.971,11.439,2.971,11.439L23.131,41.91c0.1-0.381-1.17-6.83,1.09-8.221
	c0.18-0.109,0.44-0.109,0.66-0.209c1.48-0.621,2.99-1.281,4.45-1.971c0.17-0.08,0.3-0.26,0.47-0.381
	c0.59-0.488,1.04-1.109,1.58-1.639c0.01-0.031,0.09-0.051,0.12-0.08c0.07-0.111,0.07-0.24,0.08-0.35c0.05-0.23,0.07-0.451,0.1-0.682
	c0.01-0.158,0.03-0.449,0.03-0.479l-0.49-1.25c-0.08,0-0.23,0.02-0.26,0.02c-0.05,0-0.11,0-0.14-0.041
	c-0.14-0.119-0.19-0.33-0.24-0.488c-0.09-0.342-0.19-0.98-0.19-1.012l-0.34-0.529c0.01-0.209,0.05-0.42,0.08-0.629v-0.48
	c-0.03-0.18-0.07-0.51-0.07-0.56l0.02-0.39c0.02-0.12-0.14-0.27-0.12-0.41c0.01-0.08,0.03-0.18,0.03-0.26l0.05-0.29
	c0.04-0.22,0.07-0.48,0.25-0.7c0.06-0.12,0.19-0.21,0.27-0.31c0.05-0.06,0.03-0.16,0.05-0.21c0.01-0.13,0.04-0.29,0.11-0.4
	c0.12-0.27,0.47-0.51,0.73-0.67c0.09-0.07,0.17-0.16,0.28-0.23c0.15-0.08,0.32-0.12,0.48-0.2c0.3-0.16,0.6-0.36,0.94-0.52
	c0.09-0.05,0.23-0.01,0.36-0.05c0.13-0.01,0.3-0.06,0.45-0.09l-0.34,0.14c0.02,0.02,0.03,0.02,0.03,0.02l0.93-0.07l-0.37,0.16
	C34.231,18.47,34.211,18.47,34.261,18.47z"/>
<path fill-rule="evenodd" clip-rule="evenodd" fill="#6E7580" d="M55.841,4.91C55.78,4.96,55.7,4.95,55.651,4.95l0.09-0.04H55.841z
	 M55.651,4.95L55.61,4.96C55.62,4.95,55.63,4.95,55.651,4.95z M54.88,5.11c0.031,0,0.441-0.05,0.73-0.15c0,0.01,0,0.02,0,0.04
	c0.27-0.07,0.73-0.06,0.781-0.06c0.029,0,0.109,0.02,0.158,0.04c-0.059,0.04-0.318-0.03-0.318,0.08s0.148,0.16,0.209,0.16
	c0.109,0,0.27,0.04,0.41-0.1c-0.08,0.19-0.129,0.02-0.129,0.18c0,0.05,0,0.31,0.129,0.31c0.08,0,0.1-0.21,0.1-0.23
	c-0.02-0.08,0.16,0.01,0.221-0.02c-0.029,0.11-0.08,0.15-0.08,0.2c0,0.03,0.02,0.08,0.02,0.13c0.01,0,0.01,0.01,0.041,0.01
	c0.07,0,0.289-0.15,0.32-0.18c0,0.1-0.012,0.07-0.012,0.1c0,0.08,0.041,0.23,0.141,0.23c0.16,0,0.551,0.4,0.439,0.48v0.04
	c0,0.1,0.111,0.15,0.16,0.15c0.18,0,0.57,0.66,0.561,0.71c0.01,0.01,0.359,0.68,0.27,0.86c0.201,0.11,0.27,0.42,0.27,0.47
	c0,0.45,0.182,0.75,0.182,0.78c0,0.31,0,0.52-0.08,0.84c-0.061,0.24-0.111,0.53-0.23,0.8c-0.109,0.22,0.07,0.46-0.07,0.7
	c0.041,0.04,0.09,0.04,0.141,0.05c0,0,0.059,0.15,0.059,0.19c0,0.42-0.328,1.66-0.469,1.91c-0.031,0.07-0.131,0.24-0.24,0.28
	c-0.061,0.01-0.141,0.01-0.189,0.04c-0.371,0.2-0.301,1.7-0.301,2.19v0.08c0.029,0.03,0.08,0.01,0.109,0.04
	c0.111,0.2,0.131,0.45,0.25,0.65c0.131,0.19,0.352,0.3,0.541,0.43c0.34,0.25,0.68,0.51,1.049,0.66c0.32,0.14,0.682,0.24,1.031,0.38
	l0.92,0.35c0.73,0.29,0.811,0.6,1.59,0.84c0.57,0.19,1.189,0.3,1.77,0.48c0.201,0.05,0.221,0.36,0.311,0.46
	c1.619,1.87,1.279,7.819,1.33,7.931L55.71,28.6l2.512-11.82c0-0.08-0.08-0.22-0.092-0.22c-0.139,0.16-0.219,0.43-0.379,0.63
	c-0.301,0.35-0.65,0.48-0.99,0.75c-0.5,0.4-3.311,0.05-4.029-0.61c-0.271-0.24-0.48-0.31-0.48-0.58c0-0.03,0.1-0.51,0.1-0.56
	c0-0.02-0.08-0.1-0.141-0.1c-0.27,0-0.318,1.02-0.318,1.06c0,0.49,2.959,11.44,2.959,11.44l-11.09-0.041
	c0.09-0.379-1.17-6.839,1.08-8.219c0.189-0.12,0.439-0.11,0.67-0.21c1.471-0.63,2.98-1.28,4.439-1.97
	c0.18-0.08,0.301-0.26,0.48-0.39c0.59-0.48,1.029-1.1,1.57-1.63c0.02-0.04,0.1-0.05,0.129-0.08c0.061-0.12,0.061-0.24,0.08-0.36
	c0.041-0.22,0.061-0.45,0.09-0.67c0.021-0.16,0.031-0.45,0.031-0.48l-0.49-1.25c-0.08,0-0.221,0.01-0.25,0.01
	c-0.051,0-0.109,0-0.15-0.03c-0.141-0.13-0.189-0.34-0.23-0.5c-0.1-0.33-0.189-0.97-0.189-1.01l-0.35-0.53
	c0.02-0.2,0.051-0.41,0.08-0.62v-0.48c-0.029-0.18-0.061-0.52-0.061-0.56l0.01-0.39c0.021-0.13-0.139-0.27-0.119-0.42
	c0.02-0.08,0.029-0.17,0.029-0.25l0.051-0.29c0.049-0.23,0.08-0.48,0.25-0.71c0.07-0.11,0.189-0.2,0.27-0.3
	c0.051-0.07,0.041-0.16,0.051-0.21c0.02-0.13,0.049-0.29,0.109-0.4c0.131-0.27,0.48-0.51,0.73-0.67c0.1-0.07,0.18-0.16,0.289-0.23
	c0.141-0.08,0.32-0.13,0.48-0.21c0.301-0.16,0.6-0.35,0.93-0.51c0.1-0.05,0.24-0.02,0.371-0.05c0.119-0.01,0.299-0.06,0.439-0.09
	l-0.33,0.14C54.261,5,54.28,5,54.28,5l0.92-0.07l-0.359,0.16C54.851,5.11,54.841,5.11,54.88,5.11z"/>
<path fill-rule="evenodd" clip-rule="evenodd" fill="#6E7580" d="M13.351,4.08c-0.06,0.04-0.14,0.03-0.19,0.03l0.09-0.03H13.351z
	 M13.161,4.11l-0.03,0.01C13.131,4.12,13.141,4.11,13.161,4.11z M12.401,4.27c0.02,0,0.43-0.05,0.73-0.15
	c-0.01,0.01-0.01,0.02,0,0.04c0.27-0.06,0.73-0.05,0.77-0.05s0.12,0.01,0.16,0.03c-0.06,0.05-0.31-0.03-0.31,0.08
	c0,0.12,0.14,0.16,0.2,0.16c0.11,0,0.27,0.05,0.41-0.1c-0.08,0.2-0.12,0.02-0.12,0.19c0,0.04,0,0.3,0.12,0.3
	c0.08,0,0.1-0.21,0.1-0.22c-0.02-0.08,0.16,0.01,0.22-0.02c-0.03,0.11-0.08,0.14-0.08,0.19c0,0.03,0.02,0.08,0.02,0.13
	c0.01,0,0.01,0.02,0.05,0.02c0.06,0,0.28-0.15,0.31-0.18c0,0.09-0.01,0.06-0.01,0.1c0,0.08,0.05,0.22,0.14,0.22
	c0.16,0,0.56,0.4,0.44,0.48v0.05c0,0.1,0.12,0.14,0.16,0.14c0.18,0,0.58,0.66,0.56,0.71c0.02,0.02,0.36,0.69,0.27,0.87
	c0.21,0.11,0.27,0.41,0.27,0.46c0,0.45,0.19,0.75,0.19,0.79c0,0.3,0,0.51-0.08,0.83c-0.07,0.24-0.11,0.53-0.24,0.8
	c-0.11,0.23,0.07,0.47-0.07,0.71c0.05,0.03,0.09,0.03,0.14,0.05c0,0,0.07,0.14,0.07,0.19c0,0.42-0.34,1.65-0.48,1.91
	c-0.03,0.06-0.13,0.24-0.24,0.27c-0.06,0.02-0.14,0.02-0.19,0.05c-0.36,0.19-0.3,1.7-0.3,2.18v0.08c0.03,0.03,0.08,0.02,0.11,0.05
	c0.11,0.19,0.13,0.45,0.25,0.64c0.13,0.19,0.35,0.3,0.54,0.43c0.34,0.26,0.69,0.52,1.05,0.66c0.32,0.15,0.68,0.24,1.03,0.39
	l0.93,0.35c0.73,0.29,0.8,0.59,1.58,0.83c0.57,0.19,1.19,0.31,1.78,0.48c0.19,0.05,0.21,0.37,0.3,0.47
	c1.62,1.86,1.28,7.81,1.33,7.919l-11.29-0.039l2.52-11.81c0-0.08-0.08-0.23-0.1-0.23c-0.14,0.17-0.22,0.44-0.38,0.63
	c-0.3,0.35-0.65,0.48-0.98,0.75c-0.51,0.41-3.32,0.05-4.04-0.61c-0.27-0.24-0.47-0.3-0.47-0.57c0-0.03,0.09-0.52,0.09-0.56
	c0-0.02-0.08-0.1-0.14-0.1c-0.27,0-0.32,1.01-0.32,1.06c0,0.48,2.97,11.44,2.97,11.44l-11.1-0.039c0.09-0.391-1.17-6.841,1.08-8.23
	c0.19-0.11,0.45-0.11,0.67-0.2c1.48-0.63,2.98-1.29,4.45-1.98c0.17-0.08,0.3-0.25,0.47-0.38c0.59-0.48,1.03-1.11,1.57-1.64
	c0.02-0.03,0.1-0.05,0.13-0.08c0.06-0.11,0.06-0.24,0.08-0.35c0.05-0.23,0.06-0.45,0.09-0.68c0.02-0.16,0.04-0.44,0.04-0.48
	l-0.5-1.25l-0.25,0.02c-0.05,0-0.11,0-0.14-0.03c-0.15-0.13-0.19-0.34-0.24-0.5c-0.1-0.34-0.19-0.98-0.19-1.01l-0.34-0.53
	c0.01-0.21,0.04-0.42,0.07-0.63V9.29c-0.03-0.17-0.06-0.51-0.06-0.56l0.02-0.38c0.01-0.13-0.14-0.28-0.13-0.42
	c0.02-0.08,0.03-0.18,0.03-0.26l0.05-0.29c0.05-0.22,0.08-0.48,0.26-0.7c0.06-0.11,0.19-0.21,0.27-0.31
	c0.04-0.06,0.03-0.16,0.04-0.2c0.02-0.13,0.05-0.29,0.12-0.41c0.12-0.27,0.47-0.51,0.73-0.67c0.09-0.06,0.17-0.16,0.28-0.22
	c0.14-0.08,0.32-0.13,0.48-0.21c0.3-0.16,0.6-0.36,0.93-0.52c0.1-0.04,0.24-0.01,0.37-0.04c0.13-0.02,0.3-0.07,0.44-0.1l-0.33,0.14
	c0.02,0.02,0.03,0.02,0.03,0.02l0.92-0.07l-0.36,0.17C12.361,4.27,12.351,4.27,12.401,4.27z"/>
</svg>
