<?xml version="1.0" encoding="utf-8"?>
<!-- Generator: Adobe Illustrator 15.1.0, SVG Export Plug-In . SVG Version: 6.00 Build 0)  -->
<!DOCTYPE svg PUBLIC "-//W3C//DTD SVG 1.1//EN" "http://www.w3.org/Graphics/SVG/1.1/DTD/svg11.dtd">
<svg version="1.1" id="Layer_1" xmlns="http://www.w3.org/2000/svg" xmlns:xlink="http://www.w3.org/1999/xlink" x="0px" y="0px"
	 width="46px" height="46px" viewBox="0 0 46 46" enable-background="new 0 0 46 46" xml:space="preserve">
<path fill-rule="evenodd" clip-rule="evenodd" fill="#6E7580" d="M21.83,22.5l-0.01,0.01l-3.74,4.08l-8.25-7.44l9.64-10.93
	l8.25,7.44l-3.32,3.85L44,37.189l-2.58,2.99L21.83,22.5z M19.79,4.76c0.7-0.81,1.79-1,2.43-0.43l8.62,7.78
	c0.641,0.58,0.58,1.7-0.119,2.51c-0.701,0.82-1.781,1.01-2.421,0.43l-8.62-7.78C19.04,6.7,19.09,5.58,19.79,4.76z M6.56,20.07
	c0.7-0.81,1.79-1,2.42-0.43l8.62,7.78c0.64,0.58,0.59,1.7-0.11,2.51c-0.71,0.82-1.79,1.01-2.43,0.43l-8.62-7.77
	C5.8,22.01,5.85,20.89,6.56,20.07z M27.24,38.08h1.58c0.85,0,1.539,0.88,1.539,1.96C30.37,41.13,29.67,42,28.82,42H3.54
	C2.69,42.01,1.99,41.13,2,40.04c0-1.08,0.69-1.96,1.54-1.96h1.59v-2.15h22.11V38.08z"/>
</svg>
